<?xml version="1.0" encoding="utf-8"?>
<!-- Generator: Adobe Illustrator 23.0.0, SVG Export Plug-In . SVG Version: 6.00 Build 0)  -->
<svg version="1.1" id="Capa_1" xmlns="http://www.w3.org/2000/svg" xmlns:xlink="http://www.w3.org/1999/xlink" x="0px" y="0px"
	 viewBox="0 0 433.6 433.6" style="enable-background:new 0 0 433.6 433.6;" xml:space="preserve">
<style type="text/css">
	.st0{font-family:'JetBrainsMono-ExtraBold';}
	.st1{font-size:96.7477px;}
</style>
<g>
	<path d="M377,72.9H99.2v-4.1c0-4.4,3.6-8,8-8h232.2c11.2,0,20.3-9.1,20.3-20.3c0-11.2-9.1-20.3-20.3-20.3h-56.2
		c-3.4,0-6.2,2.8-6.2,6.2s2.8,6.2,6.2,6.2h56.2c4.4,0,8,3.6,8,8c0,4.4-3.6,8-8,8H107.2c-11.2,0-20.3,9.1-20.3,20.3v4.1H56.6
		c-9.8,0-17.8,8-17.8,17.8v158.7c0,9.8,8,17.8,17.8,17.8H377c9.8,0,17.8-8,17.8-17.8V90.7C394.8,80.9,386.8,72.9,377,72.9z
		 M382.5,249.4c0,3-2.4,5.4-5.4,5.4H56.6c-3,0-5.4-2.4-5.4-5.4V90.7c0-3,2.4-5.4,5.4-5.4H377c3,0,5.4,2.4,5.4,5.4V249.4z"/>
	<path d="M368.1,93.4H65.5c-3.4,0-6.2,2.8-6.2,6.2v140.9c0,3.4,2.8,6.2,6.2,6.2h302.5c3.4,0,6.2-2.8,6.2-6.2V99.6
		C374.2,96.2,371.5,93.4,368.1,93.4z M273.4,105.7h38.1v22.9h-38.1V105.7z M122.1,176.2h38.1v22.9h-38.1V176.2z M96.9,163.9v-22.9
		H135v22.9H96.9z M147.3,163.9v-22.9h38.1v22.9H147.3z M172.5,176.2h38.1v22.9h-38.1V176.2z M197.8,163.9v-22.9h38.1v22.9H197.8z
		 M223,176.2h38.1v22.9H223V176.2z M248.2,163.9v-22.9h38.1v22.9H248.2z M273.4,176.2h38.1v22.9h-38.1V176.2z M298.6,163.9v-22.9
		h26.8v22.9H298.6z M223,105.7h38.1v22.9H223V105.7z M172.5,105.7h38.1v22.9h-38.1V105.7z M122.1,105.7h38.1v22.9h-38.1V105.7z
		 M71.7,105.7h38.1v22.9H71.7V105.7z M71.7,140.9h12.9v22.9H71.7V140.9z M71.7,176.2h38.1v22.9H71.7V176.2z M84.6,234.3H71.7v-22.9
		h12.9V234.3z M135,234.3H96.9v-22.9H135C135,211.4,135,234.3,135,234.3z M185.4,234.3h-38.1v-22.9h38.1V234.3z M235.9,234.3h-38.1
		v-22.9h38.1V234.3z M286.3,234.3h-38.1v-22.9h38.1V234.3z M336.7,234.3h-38.1v-22.9h38.1V234.3z M361.9,234.3H349v-22.9h12.9V234.3
		z M361.9,199.1h-38.1v-22.9h7.7c3.4,0,6.2-2.8,6.2-6.2v-29.1h24.3L361.9,199.1L361.9,199.1z M361.9,128.6h-38.1v-22.9h38.1V128.6z"
		/>
	<path d="M260.6,28.7C260.5,28.7,260.5,28.6,260.6,28.7C260.6,28.7,260.7,29,260.6,28.7z"/>
	<path d="M270.6,30.7c3.5-3.6,1.5-9.8-3.5-10.5c-4.6-0.6-8.3,4.1-6.5,8.4C262.3,32.7,267.5,33.7,270.6,30.7z"/>
	<path d="M260.5,28.6C260.5,28.6,260.5,28.6,260.5,28.6L260.5,28.6z"/>
</g>
<text transform="matrix(1 0 0 1 71.6963 364.4063)" class="st0 st1">KIBOD</text>
</svg>
